Coordinates
version=1
nRows=29
nColumns=22
inDegrees=yes

Units are S.I. units (second, meters, Newtons, ...)
If the header above contains a line with 'inDegrees', this indicates whether rotational values are in degrees (yes) or radians (no).

endheader
time	pelvis_tilt	pelvis_list	pelvis_rotation	pelvis_tx	pelvis_ty	pelvis_tz	hip_flexion_r	hip_adduction_r	hip_rotation_r	knee_angle_r	ankle_angle_r	subtalar_angle_r	hip_flexion_l	hip_adduction_l	hip_rotation_l	knee_angle_l	ankle_angle_l	subtalar_angle_l	lumbar_extension	lumbar_bending	lumbar_rotation
      2.53000000	     -3.74887175	      0.75441837	    -37.30648966	     -0.43753900	      0.93131233	      0.20275662	     -2.34911448	      8.36141852	     12.41627815	    -33.05435821	      9.50468676	      1.86556945	     28.73365052	     -0.19819587	     12.27151909	    -25.74781900	      1.17603968	      2.75698662	     -3.74446033	     -0.79603331	     11.27014004
      2.54000000	     -3.73260655	      0.82040319	    -37.65619588	     -0.42940221	      0.93240347	      0.20726386	     -1.40473962	      8.28258886	     12.05922182	    -35.22503656	      7.73356708	      3.56043013	     28.30641584	     -0.17406080	     11.85080117	    -26.06538845	      1.48368156	      2.54201030	     -3.64843599	     -0.87917013	     11.22372202
      2.55000000	     -3.71334849	      0.90216220	    -38.02594054	     -0.42148874	      0.93343514	      0.21169482	     -0.26796908	      8.16643023	     11.58374780	    -37.58330494	      5.92444580	      5.36326960	     27.84382824	     -0.14107489	     11.41308124	    -26.29998681	      1.87859527	      2.26362969	     -3.57185744	     -0.97240025	     11.13642666
      2.56000000	     -3.66496442	      1.00146611	    -38.40244742	     -0.41378429	      0.93439120	      0.21601924	      1.01941022	      7.98308576	     10.99504717	    -40.08874882	      4.18844889	      7.17642738	     27.34776496	     -0.07491089	     10.94367923	    -26.48666652	      2.35067099	      1.94143607	     -3.53934269	     -1.09312074	     10.98324253
      2.57000000	     -3.57691622	      1.11794310	    -38.77663062	     -0.40626574	      0.93528788	      0.22022066	      2.42676497	      7.70976822	     10.29088846	    -42.69905437	      2.63903722	      8.87797703	     26.79695543	      0.03176459	     10.45653226	    -26.59557889	      2.84589680	      1.61118637	     -3.56076990	     -1.24526887	     10.76787272
      2.58000000	     -3.43380914	      1.25413065	    -39.13666679	     -0.39890168	      0.93611409	      0.22429501	      3.91425179	      7.31868692	      9.47055887	    -45.36421781	      1.39433124	     10.30249144	     26.19786657	      0.19492274	      9.94756014	    -26.65561083	      3.36216022	      1.29030472	     -3.64361943	     -1.44444057	     10.47038736
      2.59000000	     -3.23527890	      1.41479164	    -39.46843872	     -0.39166746	      0.93685079	      0.22820992	      5.45885953	      6.80316470	      8.56441897	    -48.04224081	      0.53714585	     11.23525083	     25.57318557	      0.42658941	      9.42466376	    -26.69512180	      3.90563274	      0.99062375	     -3.78448235	     -1.68890526	     10.06799783
      2.60000000	     -2.95453896	      1.56604116	    -39.76510332	     -0.38447203	      0.93763530	      0.23201352	      6.97103400	      6.15309218	      7.55929913	    -50.64679506	      0.05404363	     11.64080162	     24.83978986	      0.71471943	      8.89866725	    -26.64886566	      4.42652388	      0.75875928	     -4.01752417	     -1.96687540	      9.57945282
      2.61000000	     -2.63082134	      1.69353649	    -40.02663384	     -0.37734070	      0.93843764	      0.23572433	      8.45198607	      5.43140598	      6.52750254	    -53.13596110	     -0.08206040	     11.68754129	     24.03344298	      1.03878136	      8.47105732	    -26.55133152	      4.98672781	      0.55841022	     -4.31579812	     -2.24276392	      9.02048271
      2.62000000	     -2.31015455	      1.82387228	    -40.23443979	     -0.37023488	      0.93919461	      0.23933667	      9.93856822	      4.64380426	      5.45115738	    -55.47425785	      0.14586992	     11.39963242	     23.24082513	      1.38222827	      8.06320464	    -26.43925055	      5.50258439	      0.36814326	     -4.61097027	     -2.49869296	      8.35323854
      2.63000000	     -2.03163300	      1.91579554	    -40.39680711	     -0.36319890	      0.93994590	      0.24293800	     11.40691789	      3.88585700	      4.35162902	    -57.59710841	      0.52424000	     10.15281897	     22.47246126	      1.67896270	      7.69375338	    -26.33187005	      5.98970035	      0.14361565	     -4.89204423	     -2.68018058	      7.59443666
      2.64000000	     -1.70172522	      1.93659084	    -40.53980786	     -0.35618315	      0.94090536	      0.24660387	     12.72653893	      3.12972194	      3.28684943	    -59.46336299	      1.11355951	      8.83302565	     21.57289108	      1.96747777	      7.42376595	    -26.15554443	      6.47544900	      0.03914762	     -5.25830337	     -2.83344715	      6.80757279
      2.65000000	     -1.41241111	      1.90266902	    -40.67104475	     -0.34925977	      0.94193767	      0.25035078	     13.98572220	      2.45528959	      2.26654997	    -61.06383823	      1.82700615	      7.34517420	     20.66646649	      2.19023941	      7.21685838	    -25.96983055	      6.94131956	     -0.04472965	     -5.61350487	     -2.90713865	      6.01133690
      2.66000000	     -1.16259748	      1.82052783	    -40.80516472	     -0.34243929	      0.94305862	      0.25422701	     15.17979631	      1.87867509	      1.31729862	    -62.38543471	      2.60109518	      5.79895712	     19.74541382	      2.34262282	      7.04489603	    -25.75711743	      7.37930884	     -0.10695815	     -5.94751826	     -2.91121128	      5.20958026
      2.67000000	     -0.96132723	      1.69022616	    -40.96231320	     -0.33575460	      0.94425672	      0.25827569	     16.31178745	      1.42130609	      0.44415336	    -63.41846907	      3.40331550	      4.29680910	     18.81423733	      2.41254246	      6.90115818	    -25.51974808	      7.80685660	     -0.16335314	     -6.24972233	     -2.84972519	      4.45035525
      2.68000000	     -0.79285078	      1.52730533	    -41.13710034	     -0.32919319	      0.94551396	      0.26246214	     17.38129451	      1.05531486	     -0.36847746	    -64.17208200	      4.18433418	      2.94784074	     17.87572551	      2.42387702	      6.75934055	    -25.26232818	      8.19684472	     -0.21359694	     -6.52665244	     -2.74320608	      3.72615183
      2.69000000	     -0.66668577	      1.33567097	    -41.34920085	     -0.32276839	      0.94679792	      0.26683433	     18.39422778	      0.81132808	     -1.08544674	    -64.65112594	      4.93522440	      1.75048585	     16.92267939	      2.36648731	      6.60688940	    -24.96182323	      8.58466761	     -0.27381348	     -6.75969600	     -2.59390297	      3.05663874
      2.70000000	     -0.56697716	      1.13128132	    -41.58850343	     -0.31648717	      0.94808669	      0.27132730	     19.35268229	      0.64707516	     -1.73946746	    -64.86801526	      5.63728072	      0.80340548	     15.96112919	      2.26815836	      6.43607447	    -24.62366455	      8.95010568	     -0.33953390	     -6.96884701	     -2.42454084	      2.43641292
      2.71000000	     -0.49039830	      0.91684698	    -41.85429837	     -0.31033867	      0.94935321	      0.27595080	     20.25296381	      0.56199245	     -2.33011869	    -64.83596174	      6.28560143	      0.12218870	     14.98732274	      2.13650651	      6.25428513	    -24.24775985	      9.27900586	     -0.40543736	     -7.14904617	     -2.24044558	      1.84746809
      2.72000000	     -0.43781732	      0.70646347	    -42.15547846	     -0.30434288	      0.95053587	      0.28068324	     21.11674604	      0.53254304	     -2.87630164	    -64.58099344	      6.83811162	     -0.40970185	     14.02711156	      1.97525898	      6.00082948	    -23.85551484	      9.63132737	     -0.49047386	     -7.29871371	     -2.05511136	      1.32331239
      2.73000000	     -0.40495625	      0.50753179	    -42.46421213	     -0.29846589	      0.95161870	      0.28545555	     21.93912000	      0.52991204	     -3.40705377	    -64.11154729	      7.34839121	     -0.73978930	     13.08098105	      1.80882266	      5.74073442	    -23.44029496	      9.96326823	     -0.57670275	     -7.42450440	     -1.86890311	      0.82311215
      2.74000000	     -0.42310833	      0.36821416	    -42.79018505	     -0.29275253	      0.95245773	      0.29025434	     22.79884244	      0.54757164	     -3.89828271	    -63.47125057	      7.85904153	     -0.85542793	     12.23416395	      1.65225319	      5.45970104	    -23.04491613	     10.31921881	     -0.66950424	     -7.46531760	     -1.70174410	      0.34132950
      2.75000000	     -0.38203686	      0.13536592	    -43.10835217	     -0.28709256	      0.95343335	      0.29513789	     23.43846767	      0.59775617	     -4.42527027	    -62.58458114	      8.24418071	     -1.03718098	     11.24312942	      1.46686351	      5.18964963	    -22.59883222	     10.59920633	     -0.76442297	     -7.63600492	     -1.50613449	     -0.13617100
      2.76000000	     -0.38707179	     -0.03757097	    -43.43986082	     -0.28158600	      0.95414298	      0.30003296	     24.10849448	      0.65210930	     -4.92732680	    -61.55108631	      8.63971857	     -1.13097172	     10.36231874	      1.29752210	      4.90072286	    -22.19773702	     10.90540713	     -0.87372792	     -7.73156440	     -1.33086590	     -0.59289982
      2.77000000	     -0.39992975	     -0.20576670	    -43.77586417	     -0.27619861	      0.95471775	      0.30496254	     24.72078365	      0.71848423	     -5.42658334	    -60.35702497	      8.99162002	     -1.18705556	      9.50995056	      1.13031029	      4.60873842	    -21.82599241	     11.20738952	     -0.99099971	     -7.82884943	     -1.15820327	     -1.04077575
      2.78000000	     -0.41984117	     -0.36244291	    -44.11469565	     -0.27091982	      0.95514395	      0.30991852	     25.28100808	      0.78791447	     -5.92465821	    -59.01579318	      9.30280107	     -1.23148794	      8.69351605	      0.97117590	      4.30672797	    -21.48965331	     11.50920908	     -1.11744532	     -7.92397081	     -0.99219582	     -1.46522762
      2.79000000	     -0.43895097	     -0.51051924	    -44.46109788	     -0.26576158	      0.95543269	      0.31492873	     25.77940804	      0.87003068	     -6.39957834	    -57.53835934	      9.57208637	     -1.27873047	      7.90100041	      0.82243890	      3.99936224	    -21.18319614	     11.81309537	     -1.25384825	     -8.02544272	     -0.84126716	     -1.88679679
      2.80000000	     -0.45468567	     -0.64833800	    -44.80876234	     -0.26069344	      0.95558426	      0.31998420	     26.21431771	      0.95585568	     -6.85732693	    -55.93305932	      9.79222288	     -1.32870938	      7.13040537	      0.68824539	      3.68353607	    -20.90592693	     12.12130960	     -1.39561207	     -8.13239711	     -0.70384130	     -2.29350603
      2.81000000	     -0.47022831	     -0.76964391	    -45.15580030	     -0.25569825	      0.95558485	      0.32508587	     26.59350401	      1.04106590	     -7.29863982	    -54.20980954	      9.96491800	     -1.37033683	      6.39052574	      0.57095117	      3.35793124	    -20.66052007	     12.44248525	     -1.53401217	     -8.23475027	     -0.58117881	     -2.68519012
